<svg width="26" height="25" viewBox="0 0 26 25" fill="none" xmlns="http://www.w3.org/2000/svg">
<path d="M12.7825 0C11.1409 0 9.5155 0.331349 7.99893 0.975129C6.48236 1.61891 5.10437 2.56251 3.94364 3.75206C1.59943 6.15447 0.282471 9.41282 0.282471 12.8103C0.282471 18.4725 3.86997 23.2764 8.83247 24.9802C9.45747 25.0826 9.65747 24.6855 9.65747 24.3396V22.1747C6.19497 22.9433 5.45747 20.4581 5.45747 20.4581C4.88247 18.9721 4.06997 18.575 4.06997 18.575C2.93247 17.7807 4.15747 17.8064 4.15747 17.8064C5.40747 17.896 6.06997 19.1258 6.06997 19.1258C7.15747 21.073 8.99497 20.4965 9.70747 20.1891C9.81997 19.3564 10.145 18.7928 10.495 18.4725C7.71997 18.1522 4.80747 17.0506 4.80747 12.1698C4.80747 10.7479 5.28247 9.60775 6.09497 8.69822C5.96997 8.37796 5.53247 7.04569 6.21997 5.31629C6.21997 5.31629 7.26997 4.97041 9.65747 6.62294C10.645 6.34112 11.72 6.2002 12.7825 6.2002C13.845 6.2002 14.92 6.34112 15.9075 6.62294C18.295 4.97041 19.345 5.31629 19.345 5.31629C20.0325 7.04569 19.595 8.37796 19.47 8.69822C20.2825 9.60775 20.7575 10.7479 20.7575 12.1698C20.7575 17.0634 17.8325 18.1394 15.045 18.4597C15.495 18.8568 15.9075 19.6382 15.9075 20.8296V24.3396C15.9075 24.6855 16.1075 25.0955 16.745 24.9802C21.7075 23.2636 25.2825 18.4725 25.2825 12.8103C25.2825 11.1281 24.9591 9.46225 24.331 7.90803C23.7028 6.35381 22.782 4.94161 21.6213 3.75206C20.4606 2.56251 19.0826 1.61891 17.566 0.975129C16.0494 0.331349 14.424 0 12.7825 0Z" fill="white"/>
</svg>
